<svg width="22" height="20" viewBox="0 0 22 20" fill="none" xmlns="http://www.w3.org/2000/svg">
<g clip-path="url(#clip0_288_3090)">
<path d="M21.5 10.061C21.5 15.0519 17.5637 19.1894 12.4252 19.9402V12.971H14.9237L15.3994 10.0877H12.4252V8.21687C12.4252 7.4277 12.8409 6.65937 14.1721 6.65937H15.5239V4.20437C15.5239 4.20437 14.2966 4.00937 13.124 4.00937C10.6747 4.00937 9.07479 5.3902 9.07479 7.88937V10.0869H6.35235V12.9702H9.07479V19.9394C3.93719 19.1877 0 15.051 0 10.061C0 4.53854 4.81331 0.0610352 10.75 0.0610352C16.6867 0.0610352 21.5 4.5377 21.5 10.061Z" fill="#EFE7DB"/>
</g>
<defs>
<clipPath id="clip0_288_3090">
<rect width="21.5" height="20" fill="white"/>
</clipPath>
</defs>
</svg>
