<svg width="59" height="11" viewBox="0 0 59 11" fill="none" xmlns="http://www.w3.org/2000/svg">
<path d="M5.41914 0.872956C5.60255 0.501333 6.13247 0.501332 6.31588 0.872955L7.51453 3.30169C7.58736 3.44926 7.72815 3.55155 7.891 3.57521L10.5713 3.96468C10.9814 4.02427 11.1451 4.52825 10.8484 4.81752L8.90892 6.70803C8.79107 6.8229 8.7373 6.9884 8.76512 7.1506L9.22296 9.82003C9.29302 10.2285 8.8643 10.54 8.49749 10.3471L6.10018 9.08678C5.95452 9.01021 5.7805 9.01021 5.63484 9.08678L3.23754 10.3471C2.87072 10.54 2.44201 10.2285 2.51206 9.82003L2.96991 7.1506C2.99773 6.9884 2.94395 6.8229 2.82611 6.70803L0.886648 4.81752C0.58989 4.52826 0.753644 4.02427 1.16375 3.96468L3.84402 3.57521C4.00688 3.55155 4.14766 3.44926 4.22049 3.30169L5.41914 0.872956ZM17.4191 0.872956C17.6026 0.501333 18.1325 0.501332 18.3159 0.872955L19.5145 3.30169C19.5874 3.44926 19.7281 3.55155 19.891 3.57521L22.5713 3.96468C22.9814 4.02427 23.1451 4.52825 22.8484 4.81752L20.9089 6.70803C20.7911 6.8229 20.7373 6.9884 20.7651 7.1506L21.223 9.82003C21.293 10.2285 20.8643 10.54 20.4975 10.3471L18.1002 9.08678C17.9545 9.01021 17.7805 9.01021 17.6348 9.08678L15.2375 10.3471C14.8707 10.54 14.442 10.2285 14.5121 9.82003L14.9699 7.1506C14.9977 6.9884 14.944 6.8229 14.8261 6.70803L12.8866 4.81752C12.5899 4.52826 12.7536 4.02427 13.1638 3.96468L15.844 3.57521C16.0069 3.55155 16.1477 3.44926 16.2205 3.30169L17.4191 0.872956ZM29.4191 0.872956C29.6026 0.501333 30.1325 0.501332 30.3159 0.872955L31.5145 3.30169C31.5874 3.44926 31.7281 3.55155 31.891 3.57521L34.5713 3.96468C34.9814 4.02427 35.1451 4.52825 34.8484 4.81752L32.9089 6.70803C32.7911 6.8229 32.7373 6.9884 32.7651 7.1506L33.223 9.82003C33.293 10.2285 32.8643 10.54 32.4975 10.3471L30.1002 9.08678C29.9545 9.01021 29.7805 9.01021 29.6348 9.08678L27.2375 10.3471C26.8707 10.54 26.442 10.2285 26.5121 9.82003L26.9699 7.1506C26.9977 6.9884 26.944 6.8229 26.8261 6.70803L24.8866 4.81752C24.5899 4.52826 24.7536 4.02427 25.1638 3.96468L27.844 3.57521C28.0069 3.55155 28.1477 3.44926 28.2205 3.30169L29.4191 0.872956ZM41.4191 0.872956C41.6026 0.501333 42.1325 0.501332 42.3159 0.872955L43.5145 3.30169C43.5874 3.44926 43.7281 3.55155 43.891 3.57521L46.5713 3.96468C46.9814 4.02427 47.1451 4.52825 46.8484 4.81752L44.9089 6.70803C44.7911 6.8229 44.7373 6.9884 44.7651 7.1506L45.223 9.82003C45.293 10.2285 44.8643 10.54 44.4975 10.3471L42.1002 9.08678C41.9545 9.01021 41.7805 9.01021 41.6348 9.08678L39.2375 10.3471C38.8707 10.54 38.442 10.2285 38.5121 9.82003L38.9699 7.1506C38.9977 6.9884 38.944 6.8229 38.8261 6.70803L36.8866 4.81752C36.5899 4.52826 36.7536 4.02427 37.1638 3.96468L39.844 3.57521C40.0069 3.55155 40.1477 3.44926 40.2205 3.30169L41.4191 0.872956ZM53.4191 0.872956C53.6026 0.501333 54.1325 0.501332 54.3159 0.872955L55.5145 3.30169C55.5874 3.44926 55.7281 3.55155 55.891 3.57521L58.5713 3.96468C58.9814 4.02427 59.1451 4.52825 58.8484 4.81752L56.9089 6.70803C56.7911 6.8229 56.7373 6.9884 56.7651 7.1506L57.223 9.82003C57.293 10.2285 56.8643 10.54 56.4975 10.3471L54.1002 9.08678C53.9545 9.01021 53.7805 9.01021 53.6348 9.08678L51.2375 10.3471C50.8707 10.54 50.442 10.2285 50.5121 9.82003L50.9699 7.1506C50.9977 6.9884 50.944 6.8229 50.8261 6.70803L48.8866 4.81752C48.5899 4.52826 48.7536 4.02427 49.1638 3.96468L51.844 3.57521C52.0069 3.55155 52.1477 3.44926 52.2205 3.30169L53.4191 0.872956Z" fill="#FFC700"/>
<path d="M5.41914 0.872956C5.60255 0.501333 6.13247 0.501332 6.31588 0.872955L7.51453 3.30169C7.58736 3.44926 7.72815 3.55155 7.891 3.57521L10.5713 3.96468C10.9814 4.02427 11.1451 4.52825 10.8484 4.81752L8.90892 6.70803C8.79107 6.8229 8.7373 6.9884 8.76512 7.1506L9.22296 9.82003C9.29302 10.2285 8.8643 10.54 8.49749 10.3471L6.10018 9.08678C5.95452 9.01021 5.7805 9.01021 5.63484 9.08678L3.23754 10.3471C2.87072 10.54 2.44201 10.2285 2.51206 9.82003L2.96991 7.1506C2.99773 6.9884 2.94395 6.8229 2.82611 6.70803L0.886648 4.81752C0.58989 4.52826 0.753644 4.02427 1.16375 3.96468L3.84402 3.57521C4.00688 3.55155 4.14766 3.44926 4.22049 3.30169L5.41914 0.872956ZM17.4191 0.872956C17.6026 0.501333 18.1325 0.501332 18.3159 0.872955L19.5145 3.30169C19.5874 3.44926 19.7281 3.55155 19.891 3.57521L22.5713 3.96468C22.9814 4.02427 23.1451 4.52825 22.8484 4.81752L20.9089 6.70803C20.7911 6.8229 20.7373 6.9884 20.7651 7.1506L21.223 9.82003C21.293 10.2285 20.8643 10.54 20.4975 10.3471L18.1002 9.08678C17.9545 9.01021 17.7805 9.01021 17.6348 9.08678L15.2375 10.3471C14.8707 10.54 14.442 10.2285 14.5121 9.82003L14.9699 7.1506C14.9977 6.9884 14.944 6.8229 14.8261 6.70803L12.8866 4.81752C12.5899 4.52826 12.7536 4.02427 13.1638 3.96468L15.844 3.57521C16.0069 3.55155 16.1477 3.44926 16.2205 3.30169L17.4191 0.872956ZM29.4191 0.872956C29.6026 0.501333 30.1325 0.501332 30.3159 0.872955L31.5145 3.30169C31.5874 3.44926 31.7281 3.55155 31.891 3.57521L34.5713 3.96468C34.9814 4.02427 35.1451 4.52825 34.8484 4.81752L32.9089 6.70803C32.7911 6.8229 32.7373 6.9884 32.7651 7.1506L33.223 9.82003C33.293 10.2285 32.8643 10.54 32.4975 10.3471L30.1002 9.08678C29.9545 9.01021 29.7805 9.01021 29.6348 9.08678L27.2375 10.3471C26.8707 10.54 26.442 10.2285 26.5121 9.82003L26.9699 7.1506C26.9977 6.9884 26.944 6.8229 26.8261 6.70803L24.8866 4.81752C24.5899 4.52826 24.7536 4.02427 25.1638 3.96468L27.844 3.57521C28.0069 3.55155 28.1477 3.44926 28.2205 3.30169L29.4191 0.872956ZM41.4191 0.872956C41.6026 0.501333 42.1325 0.501332 42.3159 0.872955L43.5145 3.30169C43.5874 3.44926 43.7281 3.55155 43.891 3.57521L46.5713 3.96468C46.9814 4.02427 47.1451 4.52825 46.8484 4.81752L44.9089 6.70803C44.7911 6.8229 44.7373 6.9884 44.7651 7.1506L45.223 9.82003C45.293 10.2285 44.8643 10.54 44.4975 10.3471L42.1002 9.08678C41.9545 9.01021 41.7805 9.01021 41.6348 9.08678L39.2375 10.3471C38.8707 10.54 38.442 10.2285 38.5121 9.82003L38.9699 7.1506C38.9977 6.9884 38.944 6.8229 38.8261 6.70803L36.8866 4.81752C36.5899 4.52826 36.7536 4.02427 37.1638 3.96468L39.844 3.57521C40.0069 3.55155 40.1477 3.44926 40.2205 3.30169L41.4191 0.872956ZM53.4191 0.872956C53.6026 0.501333 54.1325 0.501332 54.3159 0.872955L55.5145 3.30169C55.5874 3.44926 55.7281 3.55155 55.891 3.57521L58.5713 3.96468C58.9814 4.02427 59.1451 4.52825 58.8484 4.81752L56.9089 6.70803C56.7911 6.8229 56.7373 6.9884 56.7651 7.1506L57.223 9.82003C57.293 10.2285 56.8643 10.54 56.4975 10.3471L54.1002 9.08678C53.9545 9.01021 53.7805 9.01021 53.6348 9.08678L51.2375 10.3471C50.8707 10.54 50.442 10.2285 50.5121 9.82003L50.9699 7.1506C50.9977 6.9884 50.944 6.8229 50.8261 6.70803L48.8866 4.81752C48.5899 4.52826 48.7536 4.02427 49.1638 3.96468L51.844 3.57521C52.0069 3.55155 52.1477 3.44926 52.2205 3.30169L53.4191 0.872956Z" fill="#FFC700"/>
<path d="M5.41914 0.872956C5.60255 0.501333 6.13247 0.501332 6.31588 0.872955L7.51453 3.30169C7.58736 3.44926 7.72815 3.55155 7.891 3.57521L10.5713 3.96468C10.9814 4.02427 11.1451 4.52825 10.8484 4.81752L8.90892 6.70803C8.79107 6.8229 8.7373 6.9884 8.76512 7.1506L9.22296 9.82003C9.29302 10.2285 8.8643 10.54 8.49749 10.3471L6.10018 9.08678C5.95452 9.01021 5.7805 9.01021 5.63484 9.08678L3.23754 10.3471C2.87072 10.54 2.44201 10.2285 2.51206 9.82003L2.96991 7.1506C2.99773 6.9884 2.94395 6.8229 2.82611 6.70803L0.886648 4.81752C0.58989 4.52826 0.753644 4.02427 1.16375 3.96468L3.84402 3.57521C4.00688 3.55155 4.14766 3.44926 4.22049 3.30169L5.41914 0.872956ZM17.4191 0.872956C17.6026 0.501333 18.1325 0.501332 18.3159 0.872955L19.5145 3.30169C19.5874 3.44926 19.7281 3.55155 19.891 3.57521L22.5713 3.96468C22.9814 4.02427 23.1451 4.52825 22.8484 4.81752L20.9089 6.70803C20.7911 6.8229 20.7373 6.9884 20.7651 7.1506L21.223 9.82003C21.293 10.2285 20.8643 10.54 20.4975 10.3471L18.1002 9.08678C17.9545 9.01021 17.7805 9.01021 17.6348 9.08678L15.2375 10.3471C14.8707 10.54 14.442 10.2285 14.5121 9.82003L14.9699 7.1506C14.9977 6.9884 14.944 6.8229 14.8261 6.70803L12.8866 4.81752C12.5899 4.52826 12.7536 4.02427 13.1638 3.96468L15.844 3.57521C16.0069 3.55155 16.1477 3.44926 16.2205 3.30169L17.4191 0.872956ZM29.4191 0.872956C29.6026 0.501333 30.1325 0.501332 30.3159 0.872955L31.5145 3.30169C31.5874 3.44926 31.7281 3.55155 31.891 3.57521L34.5713 3.96468C34.9814 4.02427 35.1451 4.52825 34.8484 4.81752L32.9089 6.70803C32.7911 6.8229 32.7373 6.9884 32.7651 7.1506L33.223 9.82003C33.293 10.2285 32.8643 10.54 32.4975 10.3471L30.1002 9.08678C29.9545 9.01021 29.7805 9.01021 29.6348 9.08678L27.2375 10.3471C26.8707 10.54 26.442 10.2285 26.5121 9.82003L26.9699 7.1506C26.9977 6.9884 26.944 6.8229 26.8261 6.70803L24.8866 4.81752C24.5899 4.52826 24.7536 4.02427 25.1638 3.96468L27.844 3.57521C28.0069 3.55155 28.1477 3.44926 28.2205 3.30169L29.4191 0.872956ZM41.4191 0.872956C41.6026 0.501333 42.1325 0.501332 42.3159 0.872955L43.5145 3.30169C43.5874 3.44926 43.7281 3.55155 43.891 3.57521L46.5713 3.96468C46.9814 4.02427 47.1451 4.52825 46.8484 4.81752L44.9089 6.70803C44.7911 6.8229 44.7373 6.9884 44.7651 7.1506L45.223 9.82003C45.293 10.2285 44.8643 10.54 44.4975 10.3471L42.1002 9.08678C41.9545 9.01021 41.7805 9.01021 41.6348 9.08678L39.2375 10.3471C38.8707 10.54 38.442 10.2285 38.5121 9.82003L38.9699 7.1506C38.9977 6.9884 38.944 6.8229 38.8261 6.70803L36.8866 4.81752C36.5899 4.52826 36.7536 4.02427 37.1638 3.96468L39.844 3.57521C40.0069 3.55155 40.1477 3.44926 40.2205 3.30169L41.4191 0.872956ZM53.4191 0.872956C53.6026 0.501333 54.1325 0.501332 54.3159 0.872955L55.5145 3.30169C55.5874 3.44926 55.7281 3.55155 55.891 3.57521L58.5713 3.96468C58.9814 4.02427 59.1451 4.52825 58.8484 4.81752L56.9089 6.70803C56.7911 6.8229 56.7373 6.9884 56.7651 7.1506L57.223 9.82003C57.293 10.2285 56.8643 10.54 56.4975 10.3471L54.1002 9.08678C53.9545 9.01021 53.7805 9.01021 53.6348 9.08678L51.2375 10.3471C50.8707 10.54 50.442 10.2285 50.5121 9.82003L50.9699 7.1506C50.9977 6.9884 50.944 6.8229 50.8261 6.70803L48.8866 4.81752C48.5899 4.52826 48.7536 4.02427 49.1638 3.96468L51.844 3.57521C52.0069 3.55155 52.1477 3.44926 52.2205 3.30169L53.4191 0.872956Z" fill="#FFC700"/>
<path d="M5.41914 0.872956C5.60255 0.501333 6.13247 0.501332 6.31588 0.872955L7.51453 3.30169C7.58736 3.44926 7.72815 3.55155 7.891 3.57521L10.5713 3.96468C10.9814 4.02427 11.1451 4.52825 10.8484 4.81752L8.90892 6.70803C8.79107 6.8229 8.7373 6.9884 8.76512 7.1506L9.22296 9.82003C9.29302 10.2285 8.8643 10.54 8.49749 10.3471L6.10018 9.08678C5.95452 9.01021 5.7805 9.01021 5.63484 9.08678L3.23754 10.3471C2.87072 10.54 2.44201 10.2285 2.51206 9.82003L2.96991 7.1506C2.99773 6.9884 2.94395 6.8229 2.82611 6.70803L0.886648 4.81752C0.58989 4.52826 0.753644 4.02427 1.16375 3.96468L3.84402 3.57521C4.00688 3.55155 4.14766 3.44926 4.22049 3.30169L5.41914 0.872956ZM17.4191 0.872956C17.6026 0.501333 18.1325 0.501332 18.3159 0.872955L19.5145 3.30169C19.5874 3.44926 19.7281 3.55155 19.891 3.57521L22.5713 3.96468C22.9814 4.02427 23.1451 4.52825 22.8484 4.81752L20.9089 6.70803C20.7911 6.8229 20.7373 6.9884 20.7651 7.1506L21.223 9.82003C21.293 10.2285 20.8643 10.54 20.4975 10.3471L18.1002 9.08678C17.9545 9.01021 17.7805 9.01021 17.6348 9.08678L15.2375 10.3471C14.8707 10.54 14.442 10.2285 14.5121 9.82003L14.9699 7.1506C14.9977 6.9884 14.944 6.8229 14.8261 6.70803L12.8866 4.81752C12.5899 4.52826 12.7536 4.02427 13.1638 3.96468L15.844 3.57521C16.0069 3.55155 16.1477 3.44926 16.2205 3.30169L17.4191 0.872956ZM29.4191 0.872956C29.6026 0.501333 30.1325 0.501332 30.3159 0.872955L31.5145 3.30169C31.5874 3.44926 31.7281 3.55155 31.891 3.57521L34.5713 3.96468C34.9814 4.02427 35.1451 4.52825 34.8484 4.81752L32.9089 6.70803C32.7911 6.8229 32.7373 6.9884 32.7651 7.1506L33.223 9.82003C33.293 10.2285 32.8643 10.54 32.4975 10.3471L30.1002 9.08678C29.9545 9.01021 29.7805 9.01021 29.6348 9.08678L27.2375 10.3471C26.8707 10.54 26.442 10.2285 26.5121 9.82003L26.9699 7.1506C26.9977 6.9884 26.944 6.8229 26.8261 6.70803L24.8866 4.81752C24.5899 4.52826 24.7536 4.02427 25.1638 3.96468L27.844 3.57521C28.0069 3.55155 28.1477 3.44926 28.2205 3.30169L29.4191 0.872956ZM41.4191 0.872956C41.6026 0.501333 42.1325 0.501332 42.3159 0.872955L43.5145 3.30169C43.5874 3.44926 43.7281 3.55155 43.891 3.57521L46.5713 3.96468C46.9814 4.02427 47.1451 4.52825 46.8484 4.81752L44.9089 6.70803C44.7911 6.8229 44.7373 6.9884 44.7651 7.1506L45.223 9.82003C45.293 10.2285 44.8643 10.54 44.4975 10.3471L42.1002 9.08678C41.9545 9.01021 41.7805 9.01021 41.6348 9.08678L39.2375 10.3471C38.8707 10.54 38.442 10.2285 38.5121 9.82003L38.9699 7.1506C38.9977 6.9884 38.944 6.8229 38.8261 6.70803L36.8866 4.81752C36.5899 4.52826 36.7536 4.02427 37.1638 3.96468L39.844 3.57521C40.0069 3.55155 40.1477 3.44926 40.2205 3.30169L41.4191 0.872956ZM53.4191 0.872956C53.6026 0.501333 54.1325 0.501332 54.3159 0.872955L55.5145 3.30169C55.5874 3.44926 55.7281 3.55155 55.891 3.57521L58.5713 3.96468C58.9814 4.02427 59.1451 4.52825 58.8484 4.81752L56.9089 6.70803C56.7911 6.8229 56.7373 6.9884 56.7651 7.1506L57.223 9.82003C57.293 10.2285 56.8643 10.54 56.4975 10.3471L54.1002 9.08678C53.9545 9.01021 53.7805 9.01021 53.6348 9.08678L51.2375 10.3471C50.8707 10.54 50.442 10.2285 50.5121 9.82003L50.9699 7.1506C50.9977 6.9884 50.944 6.8229 50.8261 6.70803L48.8866 4.81752C48.5899 4.52826 48.7536 4.02427 49.1638 3.96468L51.844 3.57521C52.0069 3.55155 52.1477 3.44926 52.2205 3.30169L53.4191 0.872956Z" fill="#FFC700"/>
<path d="M5.41914 0.872956C5.60255 0.501333 6.13247 0.501332 6.31588 0.872955L7.51453 3.30169C7.58736 3.44926 7.72815 3.55155 7.891 3.57521L10.5713 3.96468C10.9814 4.02427 11.1451 4.52825 10.8484 4.81752L8.90892 6.70803C8.79107 6.8229 8.7373 6.9884 8.76512 7.1506L9.22296 9.82003C9.29302 10.2285 8.8643 10.54 8.49749 10.3471L6.10018 9.08678C5.95452 9.01021 5.7805 9.01021 5.63484 9.08678L3.23754 10.3471C2.87072 10.54 2.44201 10.2285 2.51206 9.82003L2.96991 7.1506C2.99773 6.9884 2.94395 6.8229 2.82611 6.70803L0.886648 4.81752C0.58989 4.52826 0.753644 4.02427 1.16375 3.96468L3.84402 3.57521C4.00688 3.55155 4.14766 3.44926 4.22049 3.30169L5.41914 0.872956ZM17.4191 0.872956C17.6026 0.501333 18.1325 0.501332 18.3159 0.872955L19.5145 3.30169C19.5874 3.44926 19.7281 3.55155 19.891 3.57521L22.5713 3.96468C22.9814 4.02427 23.1451 4.52825 22.8484 4.81752L20.9089 6.70803C20.7911 6.8229 20.7373 6.9884 20.7651 7.1506L21.223 9.82003C21.293 10.2285 20.8643 10.54 20.4975 10.3471L18.1002 9.08678C17.9545 9.01021 17.7805 9.01021 17.6348 9.08678L15.2375 10.3471C14.8707 10.54 14.442 10.2285 14.5121 9.82003L14.9699 7.1506C14.9977 6.9884 14.944 6.8229 14.8261 6.70803L12.8866 4.81752C12.5899 4.52826 12.7536 4.02427 13.1638 3.96468L15.844 3.57521C16.0069 3.55155 16.1477 3.44926 16.2205 3.30169L17.4191 0.872956ZM29.4191 0.872956C29.6026 0.501333 30.1325 0.501332 30.3159 0.872955L31.5145 3.30169C31.5874 3.44926 31.7281 3.55155 31.891 3.57521L34.5713 3.96468C34.9814 4.02427 35.1451 4.52825 34.8484 4.81752L32.9089 6.70803C32.7911 6.8229 32.7373 6.9884 32.7651 7.1506L33.223 9.82003C33.293 10.2285 32.8643 10.54 32.4975 10.3471L30.1002 9.08678C29.9545 9.01021 29.7805 9.01021 29.6348 9.08678L27.2375 10.3471C26.8707 10.54 26.442 10.2285 26.5121 9.82003L26.9699 7.1506C26.9977 6.9884 26.944 6.8229 26.8261 6.70803L24.8866 4.81752C24.5899 4.52826 24.7536 4.02427 25.1638 3.96468L27.844 3.57521C28.0069 3.55155 28.1477 3.44926 28.2205 3.30169L29.4191 0.872956ZM41.4191 0.872956C41.6026 0.501333 42.1325 0.501332 42.3159 0.872955L43.5145 3.30169C43.5874 3.44926 43.7281 3.55155 43.891 3.57521L46.5713 3.96468C46.9814 4.02427 47.1451 4.52825 46.8484 4.81752L44.9089 6.70803C44.7911 6.8229 44.7373 6.9884 44.7651 7.1506L45.223 9.82003C45.293 10.2285 44.8643 10.54 44.4975 10.3471L42.1002 9.08678C41.9545 9.01021 41.7805 9.01021 41.6348 9.08678L39.2375 10.3471C38.8707 10.54 38.442 10.2285 38.5121 9.82003L38.9699 7.1506C38.9977 6.9884 38.944 6.8229 38.8261 6.70803L36.8866 4.81752C36.5899 4.52826 36.7536 4.02427 37.1638 3.96468L39.844 3.57521C40.0069 3.55155 40.1477 3.44926 40.2205 3.30169L41.4191 0.872956ZM53.4191 0.872956C53.6026 0.501333 54.1325 0.501332 54.3159 0.872955L55.5145 3.30169C55.5874 3.44926 55.7281 3.55155 55.891 3.57521L58.5713 3.96468C58.9814 4.02427 59.1451 4.52825 58.8484 4.81752L56.9089 6.70803C56.7911 6.8229 56.7373 6.9884 56.7651 7.1506L57.223 9.82003C57.293 10.2285 56.8643 10.54 56.4975 10.3471L54.1002 9.08678C53.9545 9.01021 53.7805 9.01021 53.6348 9.08678L51.2375 10.3471C50.8707 10.54 50.442 10.2285 50.5121 9.82003L50.9699 7.1506C50.9977 6.9884 50.944 6.8229 50.8261 6.70803L48.8866 4.81752C48.5899 4.52826 48.7536 4.02427 49.1638 3.96468L51.844 3.57521C52.0069 3.55155 52.1477 3.44926 52.2205 3.30169L53.4191 0.872956Z" fill="#FFC700"/>
</svg>
