<svg width="22" height="20" viewBox="0 0 22 20" fill="none" xmlns="http://www.w3.org/2000/svg">
<g clip-path="url(#clip0_288_3093)">
<path d="M11.25 1.80167C14.1202 1.80167 14.4607 1.81167 15.5939 1.86C16.7656 1.91 17.9723 2.15833 18.8261 2.9525C19.6879 3.75417 19.9467 4.86583 20.0005 5.95917C20.0525 7.01333 20.0632 7.33 20.0632 10C20.0632 12.67 20.0525 12.9867 20.0005 14.0408C19.9476 15.125 19.6744 16.2583 18.8261 17.0475C17.9643 17.8492 16.7701 18.09 15.5939 18.14C14.4607 18.1883 14.1202 18.1983 11.25 18.1983C8.37975 18.1983 8.03933 18.1883 6.9061 18.14C5.74958 18.0908 4.51512 17.8308 3.67394 17.0475C2.81662 16.25 2.55325 15.1275 2.4995 14.0408C2.44754 12.9867 2.43679 12.67 2.43679 10C2.43679 7.33 2.44754 7.01333 2.4995 5.95917C2.55235 4.87917 2.82827 3.73917 3.67394 2.9525C4.53394 2.1525 5.73346 1.91 6.9061 1.86C8.03933 1.81167 8.37975 1.80167 11.25 1.80167ZM11.25 0C8.33048 0 7.96408 0.0116667 6.81742 0.06C5.15565 0.130833 3.50552 0.560833 2.30421 1.67833C1.09842 2.8 0.640646 4.33167 0.5645 5.87667C0.512542 6.94333 0.5 7.28417 0.5 10C0.5 12.7158 0.512542 13.0567 0.5645 14.1233C0.640646 15.6675 1.10469 17.2067 2.30421 18.3217C3.5091 19.4425 5.15833 19.8692 6.81742 19.94C7.96408 19.9883 8.33048 20 11.25 20C14.1695 20 14.5359 19.9883 15.6826 19.94C17.3435 19.8692 18.9954 19.4383 20.1958 18.3217C21.4025 17.1992 21.8594 15.6683 21.9355 14.1233C21.9875 13.0567 22 12.7158 22 10C22 7.28417 21.9875 6.94333 21.9355 5.87667C21.8594 4.33083 21.3962 2.795 20.1958 1.67833C18.9927 0.559167 17.339 0.13 15.6826 0.06C14.5359 0.0116667 14.1695 0 11.25 0Z" fill="#EFE7DB"/>
<path d="M11.2501 4.86523C8.20159 4.86523 5.72998 7.1644 5.72998 10.0002C5.72998 12.8361 8.20159 15.1352 11.2501 15.1352C14.2986 15.1352 16.7702 12.8361 16.7702 10.0002C16.7702 7.1644 14.2986 4.86523 11.2501 4.86523ZM11.2501 13.3336C9.27121 13.3336 7.66677 11.8411 7.66677 10.0002C7.66677 8.1594 9.27121 6.6669 11.2501 6.6669C13.229 6.6669 14.8334 8.1594 14.8334 10.0002C14.8334 11.8411 13.229 13.3336 11.2501 13.3336Z" fill="#EFE7DB"/>
<path d="M16.9887 5.86143C17.7012 5.86143 18.2787 5.32417 18.2787 4.66143C18.2787 3.99868 17.7012 3.46143 16.9887 3.46143C16.2763 3.46143 15.6987 3.99868 15.6987 4.66143C15.6987 5.32417 16.2763 5.86143 16.9887 5.86143Z" fill="#EFE7DB"/>
</g>
<defs>
<clipPath id="clip0_288_3093">
<rect width="21.5" height="20" fill="white" transform="translate(0.5)"/>
</clipPath>
</defs>
</svg>
