<svg width="25" height="20" viewBox="0 0 25 20" fill="none" xmlns="http://www.w3.org/2000/svg">
<path d="M5.92505 10H8.15005C8.38339 10 8.59172 9.929 8.77505 9.787C8.95839 9.645 9.07505 9.466 9.12505 9.25L9.90005 6.225C9.45005 6.14167 8.94172 6.08767 8.37505 6.063C7.80839 6.03833 7.29172 6.02567 6.82505 6.025C6.44172 6.025 6.02939 6.02933 5.58805 6.038C5.14672 6.04667 4.73405 6.06733 4.35005 6.1L4.95005 9.2C5.00005 9.43333 5.11672 9.625 5.30005 9.775C5.48339 9.925 5.69172 10 5.92505 10ZM5.95005 12C5.25005 12 4.62072 11.775 4.06205 11.325C3.50339 10.875 3.14939 10.3 3.00005 9.6L2.27505 6.25H2.15005C1.86672 6.26667 1.62939 6.18733 1.43805 6.012C1.24672 5.83667 1.13405 5.608 1.10005 5.326C1.06605 5.044 1.13705 4.802 1.31305 4.6C1.48905 4.398 1.71805 4.28133 2.00005 4.25L2.45005 4.2C3.36672 4.11667 4.17939 4.06267 4.88805 4.038C5.59672 4.01333 6.24239 4.00067 6.82505 4C7.90839 4 8.78339 4.05 9.45005 4.15C10.1167 4.25 10.7167 4.425 11.2501 4.675C11.4834 4.79167 11.7044 4.875 11.9131 4.925C12.1217 4.975 12.3174 5 12.5001 5C12.6827 5 12.8621 4.975 13.0381 4.925C13.2141 4.875 13.4181 4.8 13.6501 4.7C14.2001 4.45 14.8334 4.271 15.5501 4.163C16.2667 4.055 17.2167 4.00067 18.4001 4C18.8834 4 19.3961 4.01267 19.9381 4.038C20.4801 4.06333 21.0591 4.09233 21.6751 4.125L23.0001 4.225C23.2834 4.25833 23.5127 4.375 23.6881 4.575C23.8634 4.775 23.9341 5.01667 23.9001 5.3C23.8661 5.58333 23.7537 5.81233 23.5631 5.987C23.3724 6.16167 23.1347 6.23267 22.8501 6.2H22.7501L22.4001 7.825C22.3167 8.15833 22.1584 8.37933 21.9251 8.488C21.6917 8.59667 21.4501 8.62567 21.2001 8.575C20.9501 8.52433 20.7417 8.39533 20.5751 8.188C20.4084 7.98067 20.3584 7.718 20.4251 7.4L20.7001 6.075C20.3667 6.05833 19.9834 6.046 19.5501 6.038C19.1167 6.03 18.7334 6.02567 18.4001 6.025C17.9001 6.025 17.3461 6.03767 16.7381 6.063C16.1301 6.08833 15.5841 6.14233 15.1001 6.225L15.7251 8.65C15.8084 8.96667 15.7667 9.22933 15.6001 9.438C15.4334 9.64667 15.2334 9.784 15.0001 9.85C14.7667 9.916 14.5294 9.89533 14.2881 9.788C14.0467 9.68067 13.8841 9.45967 13.8001 9.125L13.2751 7.05H11.7501L11.0751 9.725C10.8917 10.4083 10.5334 10.9583 10.0001 11.375C9.46672 11.7917 8.85839 12 8.17505 12H5.95005ZM19.0001 16C18.7834 16 18.6044 15.929 18.4631 15.787C18.3217 15.645 18.2507 15.466 18.2501 15.25V10.75C18.2501 10.5333 18.3211 10.3543 18.4631 10.213C18.6051 10.0717 18.7841 10.0007 19.0001 10C19.2161 9.99933 19.3954 10.0703 19.5381 10.213C19.6807 10.3557 19.7514 10.5347 19.7501 10.75V15.25C19.7501 15.4667 19.6791 15.646 19.5371 15.788C19.3951 15.93 19.2161 16.0007 19.0001 16ZM16.2501 14.5C16.0334 14.5 15.8544 14.429 15.7131 14.287C15.5717 14.145 15.5007 13.966 15.5001 13.75V12.25C15.5001 12.0333 15.5711 11.8543 15.7131 11.713C15.8551 11.5717 16.0341 11.5007 16.2501 11.5C16.4661 11.4993 16.6454 11.5703 16.7881 11.713C16.9307 11.8557 17.0014 12.0347 17.0001 12.25V13.75C17.0001 13.9667 16.9291 14.146 16.7871 14.288C16.6451 14.43 16.4661 14.5007 16.2501 14.5ZM21.7501 14.5C21.5334 14.5 21.3544 14.429 21.2131 14.287C21.0717 14.145 21.0007 13.966 21.0001 13.75V12.25C21.0001 12.0333 21.0711 11.8543 21.2131 11.713C21.3551 11.5717 21.5341 11.5007 21.7501 11.5C21.9661 11.4993 22.1454 11.5703 22.2881 11.713C22.4307 11.8557 22.5014 12.0347 22.5001 12.25V13.75C22.5001 13.9667 22.4291 14.146 22.2871 14.288C22.1451 14.43 21.9661 14.5007 21.7501 14.5Z" fill="#EFE7DB"/>
</svg>
