<svg width="20" height="20" viewBox="0 0 20 20" fill="none" xmlns="http://www.w3.org/2000/svg">
<path d="M17.9525 5.9198C17.9642 6.09563 17.9642 6.2723 17.9642 6.4498C17.9642 11.8723 13.8358 18.1248 6.28917 18.1248V18.1215C4.06 18.1248 1.87667 17.4865 0 16.2823C0.324167 16.3215 0.65 16.3406 0.976667 16.3415C2.825 16.3431 4.62 15.7231 6.0725 14.5815C4.31667 14.5481 2.77667 13.4031 2.23917 11.7315C2.85417 11.8498 3.4875 11.8256 4.09167 11.6615C2.17667 11.2748 0.8 9.5923 0.8 7.63896C0.8 7.62146 0.8 7.60396 0.8 7.5873C1.37083 7.90563 2.00917 8.08146 2.6625 8.10063C0.859167 6.89646 0.3025 4.49813 1.39167 2.62313C3.475 5.18646 6.54917 6.7448 9.84833 6.91063C9.5175 5.48563 9.97 3.9923 11.035 2.9898C12.6875 1.43563 15.2867 1.51563 16.8408 3.16813C17.76 2.9873 18.6408 2.6498 19.4467 2.1723C19.14 3.1223 18.4992 3.92896 17.6425 4.4423C18.4567 4.3448 19.2508 4.1273 20 3.79563C19.4492 4.6198 18.7558 5.33896 17.9525 5.9198Z" fill="#EFE7DB"/>
</svg>
